.
 
http://www.scenetime.com    -   SceneTime [ We been having it ] !!!


How come you press harder on a remote control when you know the battery is dead? so you better seed to get speed ;)

        Seed back for speed


...................................NFO:.................................................








































          
          
              
              
                    
                    
                    
                    

Insidious.2011.RC.BRRiP.XviD-SiC

Poster:
[img]http://leetleech.org/images/09152042518477889134.jpg[/img]

IMDB Link:
http://www.imdb.com/title/tt1591095/

Description:
A family looks to prevent evil spirits from trapping their comatose child in a realm called The Further. 

General
Complete name                    : Insidious.2011.RC.BRRiP.XviD-SiC.sample.avi
Format                           : AVI
Format/Info                      : Audio Video Interleave
File size                        : 26.0 MiB
Duration                         : 1mn 9s
Overall bit rate                 : 3 150 Kbps
Writing application              : VirtualDubMod 1.5.10.2 (build 2542/release)
Writing library                  : VirtualDubMod build 2542/release

Video
ID                               : 0
Format                           : MPEG-4 Visual
Format profile                   : Advanced Simple@L5
Format settings, BVOP            : 2
Format settings, QPel            : No
Format settings, GMC             : No warppoints
Format settings, Matrix          : Custom
Codec ID                         : XVID
Codec ID/Hint                    : XviD
Duration                         : 1mn 9s
Bit rate                         : 2 692 Kbps
Width                            : 720 pixels
Height                           : 304 pixels
Display aspect ratio             : 2.35:1
Frame rate                       : 23.976 fps
Color space                      : YUV
Chroma subsampling               : 4:2:0
Bit depth                        : 8 bits
Scan type                        : Progressive
Compression mode                 : Lossy
Bits/(Pixel*Frame)               : 0.513
Stream size                      : 22.2 MiB (85%)
Writing library                  : XviD 58

Audio
ID                               : 1
Format                           : AC-3
Format/Info                      : Audio Coding 3
Mode extension                   : CM (complete main)
Codec ID                         : 2000
Duration                         : 1mn 9s
Bit rate mode                    : Constant
Bit rate                         : 448 Kbps
Channel(s)                       : 6 channels
Channel positions                : Front: L C R, Side: L R, LFE
Sampling rate                    : 48.0 KHz
Bit depth                        : 16 bits
Compression mode                 : Lossy
Delay relative to video          : 2ms
Stream size                      : 3.70 MiB (14%)
Alignment                        : Split accross interleaves
Interleave, duration             : 42 ms (1.01 video frame)
Interleave, preload duration     : 500 ms


Screenshots:
[img]http://leetleech.org/images/11523595092770035251.png[/img]
[img]http://leetleech.org/images/07543149661801829275.png[/img]
[img]http://leetleech.org/images/97792777263631404726.png[/img]
[img]http://leetleech.org/images/82872705223691547021.png[/img]
[img]http://leetleech.org/images/80351910461983656439.png[/img]

Note: N/A

Encoder: thefuzz

Enjoy!

Respects to CaptainHomey, Cyanide, CM8, Rx, Pirate666, THC, ELEKTRI4KA, Killerhz, 
XtremE, PA, YeFsTe, Empire and everyone in the struggle...